<?xml version="1.0" standalone="no"?>
<!DOCTYPE svg PUBLIC "-//W3C//DTD SVG 20010904//EN"
 "http://www.w3.org/TR/2001/REC-SVG-20010904/DTD/svg10.dtd">
<svg version="1.0" xmlns="http://www.w3.org/2000/svg"
 width="300.000000pt" height="180.000000pt" viewBox="0 0 300.000000 180.000000"
 preserveAspectRatio="xMidYMid meet">
<metadata>
Created by potrace 1.10, written by Peter Selinger 2001-2011
</metadata>
<g transform="translate(0.000000,180.000000) scale(0.100000,-0.100000)"
fill="#000000" stroke="none">
<path d="M1402 1419 c-239 -61 -402 -269 -402 -513 0 -216 111 -393 306 -487
83 -40 94 -43 194 -47 l105 -4 -3 164 -3 164 129 179 c71 99 129 180 128 180
0 0 -38 -1 -83 -3 l-83 -4 -79 -129 -78 -129 -79 129 -78 130 -83 3 c-77 3
-97 -2 -73 -17 5 -3 61 -79 125 -169 l115 -164 0 -136 0 -136 -27 6 c-49 12
-147 60 -187 93 -57 46 -122 134 -147 199 -32 87 -37 203 -11 289 12 38 33 90
47 116 34 60 127 145 196 179 58 28 206 61 214 47 3 -4 26 -6 51 -4 44 4 76
-7 184 -58 14 -7 46 -33 71 -59 31 -31 45 -40 42 -27 -3 11 -26 38 -52 61
-120 107 -311 143 -466 89 -88 -31 -91 -32 -41 -7 118 59 291 57 410 -4 32
-16 64 -30 70 -30 14 0 80 -62 128 -120 20 -25 37 -42 38 -38 0 4 -20 32 -44
62 -25 30 -42 57 -38 61 4 4 0 5 -8 3 -8 -2 -14 4 -15 12 0 8 -5 15 -12 15 -7
0 -19 9 -28 20 -9 11 -14 14 -10 8 4 -9 1 -11 -9 -7 -9 3 -13 10 -10 15 3 5 2
9 -3 8 -19 -3 -34 2 -29 10 7 11 -53 33 -67 24 -6 -4 -7 -1 -2 7 6 10 3 12
-13 8 -12 -4 -22 -2 -22 4 0 6 -11 8 -27 4 -22 -5 -25 -4 -13 4 12 9 9 11 -12
7 -16 -2 -28 -1 -28 3 0 3 -22 7 -50 9 -35 1 -50 -2 -50 -11 0 -9 -2 -10 -8
-2 -5 9 -27 7 -80 -7z m15 -514 c34 -55 74 -110 89 -123 24 -21 28 -22 48 -9
11 8 47 56 78 107 31 50 64 101 74 111 19 21 54 26 54 8 0 -7 -38 -65 -84
-130 -47 -65 -91 -128 -98 -141 -8 -15 -15 -75 -18 -168 l-5 -145 -30 -3 -30
-3 3 149 4 148 -48 70 c-26 38 -71 103 -100 145 -30 42 -51 79 -47 83 22 21
51 -5 110 -99z"/>
</g>
</svg>
