<?xml version="1.0" standalone="no"?>
<!DOCTYPE svg PUBLIC "-//W3C//DTD SVG 20010904//EN"
 "http://www.w3.org/TR/2001/REC-SVG-20010904/DTD/svg10.dtd">
<svg version="1.0" xmlns="http://www.w3.org/2000/svg"
 width="251.000000pt" height="201.000000pt" viewBox="0 0 251.000000 201.000000"
 preserveAspectRatio="xMidYMid meet">
<metadata>
Created by potrace 1.10, written by Peter Selinger 2001-2011
</metadata>
<g transform="translate(0.000000,201.000000) scale(0.050000,-0.050000)"
fill="#000000" stroke="none">
<path d="M2438 3540 c-123 -21 -226 -77 -361 -195 l-112 -99 -105 21 c-99 21
-107 19 -144 -26 -21 -27 -55 -58 -74 -70 -123 -72 -202 -135 -202 -161 0 -27
-68 -77 -110 -80 -11 0 -17 -16 -14 -35 3 -21 -4 -31 -20 -25 -77 27 -257
-332 -281 -560 -44 -419 -42 -521 11 -675 27 -80 56 -175 64 -213 11 -51 19
-61 34 -40 13 20 16 11 7 -29 -9 -41 -6 -52 11 -42 15 10 19 7 10 -8 -26 -42
153 -315 191 -291 9 6 17 -2 17 -17 0 -40 339 -337 463 -405 98 -54 123 -59
297 -57 143 1 178 -3 140 -18 -49 -19 -49 -20 30 -49 132 -50 337 -42 513 20
85 30 180 54 211 54 68 0 271 96 255 121 -10 17 69 71 95 64 7 -2 34 21 60 51
25 30 84 85 130 122 73 58 81 73 63 107 -15 28 -15 36 1 26 84 -51 283 289
309 529 4 39 15 88 23 110 9 22 28 70 43 107 50 124 14 483 -57 576 -10 13
-12 47 -5 76 15 56 -62 291 -95 291 -10 0 -13 8 -7 18 6 10 -32 67 -85 125
-53 59 -125 147 -160 196 -35 49 -64 77 -64 62 0 -35 -22 -14 -28 26 -9 62
-301 252 -387 253 -14 0 -104 30 -200 67 -194 75 -329 96 -467 73z m302 -224
c128 -22 191 -56 103 -56 -20 0 -90 -18 -155 -41 -65 -22 -208 -63 -318 -89
-110 -27 -222 -55 -250 -62 -44 -12 -39 -2 40 81 166 174 305 214 580 167z
m445 -174 c99 -48 316 -236 245 -212 -22 7 -103 27 -180 43 -136 28 -573 146
-587 158 -4 4 36 20 90 37 133 43 314 32 432 -26z m-1347 -121 l27 -119 132
-6 133 -6 -102 -69 -103 -70 38 -108 c52 -154 49 -157 -63 -63 l-100 84 -75
-59 c-119 -93 -131 -97 -117 -43 7 27 -14 -10 -48 -81 -353 -744 133 -1542
938 -1541 931 1 1405 1124 755 1787 -308 315 -813 416 -1170 235 -83 -43 -174
-57 -154 -24 27 44 286 124 467 145 1008 117 1595 -1140 873 -1869 -684 -691
-1869 -200 -1869 774 0 244 138 670 210 645 11 -4 30 21 42 55 22 61 20 63
-89 136 l-110 74 137 6 138 6 30 115 c38 144 47 144 80 -4z m807 -137 l105
-105 -100 14 c-113 15 -221 44 -410 110 l-130 46 80 25 c183 57 339 27 455
-90z m156 86 c169 -60 303 -234 276 -360 -9 -40 -192 107 -333 268 -117 134
-107 150 57 92z m590 -103 c165 -45 321 -236 399 -487 18 -58 -106 46 -427
357 -209 201 -210 197 28 130z m-54 -336 c20 -72 7 -205 -28 -297 -17 -45
-133 240 -165 406 -11 61 -27 128 -34 150 -8 22 35 -9 96 -71 69 -70 118 -139
131 -188z m-1940 -21 c-9 -132 -24 -316 -33 -410 l-17 -170 -66 140 c-89 189
-82 332 29 557 96 194 106 180 87 -117z m954 102 l139 -47 -60 -23 c-33 -13
-84 -33 -114 -44 -90 -36 -136 -8 -136 83 0 93 -6 92 171 31z m-531 -140 c0
-30 -156 -294 -207 -352 -35 -38 -83 -97 -107 -130 l-44 -60 10 110 c14 142
58 263 114 315 61 56 234 143 234 117z m1886 -151 c111 -124 144 -242 128
-456 -13 -171 -42 -225 -62 -116 -8 39 -40 132 -71 206 -32 74 -64 171 -72
215 -8 44 -31 123 -52 176 -20 52 -37 100 -37 105 0 27 84 -40 166 -130z
m-663 -6 c9 3 18 -2 19 -10 0 -8 5 -31 10 -50 51 -191 18 -204 -69 -28 -73
148 -81 207 -20 133 23 -27 50 -48 60 -45z m450 -131 c14 -139 -17 -222 -126
-326 l-71 -68 14 140 c37 395 151 554 183 254z m-1343 100 c-11 -29 15 -87 72
-160 l36 -47 52 82 c28 46 49 96 46 114 -5 26 25 31 204 31 181 0 209 -4 204
-32 -6 -33 199 -459 248 -514 43 -48 36 -52 -82 -50 -80 1 -108 9 -101 27 46
120 -271 194 -325 76 -14 -31 -15 -54 -3 -61 10 -7 19 -19 19 -26 0 -17 -358
-13 -375 4 -6 7 -1 12 12 12 108 0 -68 442 -210 526 -55 33 -24 48 93 46 91
-1 118 -8 110 -28z m-701 -732 c87 -192 88 -190 -57 -81 -167 125 -220 225
-241 457 -25 285 25 221 298 -376z m203 69 c-17 -71 -25 -135 -20 -144 6 -10
2 -17 -8 -17 -34 0 -104 221 -104 327 1 87 12 118 75 203 l75 100 6 -171 c3
-101 -7 -223 -24 -298z m1858 214 c-34 -221 -147 -347 -347 -387 l-66 -14 97
129 c79 106 297 346 323 355 3 1 1 -36 -7 -83z m191 -87 c53 -161 45 -246 -38
-415 -59 -118 -197 -299 -176 -229 6 18 21 108 33 200 12 91 40 235 61 319 22
85 39 182 39 217 0 92 31 57 81 -92z m-1613 -206 c-18 -19 -86 69 -99 128 -13
55 -9 52 47 -30 34 -49 57 -93 52 -98z m-280 8 c39 -71 88 -182 110 -248 21
-65 49 -137 61 -160 38 -71 -13 -49 -122 52 -152 143 -183 233 -144 424 16 80
12 83 95 -68z m909 21 c175 -90 103 -158 -189 -181 -187 -14 -264 4 -323 74
-18 21 5 25 122 20 131 -5 151 0 233 55 106 71 89 68 157 32z m-1247 -236 c33
-17 140 -95 238 -173 97 -78 185 -142 195 -142 9 0 17 -8 17 -17 0 -18 -39
-16 -200 8 -152 22 -275 120 -390 309 -90 148 -89 178 5 104 41 -32 102 -72
135 -89z m1890 95 c0 -30 -179 -199 -247 -233 -78 -40 -264 -40 -329 1 -31 19
243 146 426 198 77 21 142 40 145 42 3 1 5 -3 5 -8z m-999 -357 l129 -117
-100 14 c-230 32 -410 188 -410 357 0 40 216 -104 381 -254z m1089 202 c-38
-251 -139 -384 -379 -502 -128 -62 -157 -59 -90 11 24 25 68 82 97 126 49 75
364 449 379 450 3 0 1 -38 -7 -85z m-690 -137 c28 -10 91 -26 140 -35 l90 -17
-80 -37 c-197 -89 -388 -55 -522 93 -38 43 255 40 372 -4z m256 -195 c-176
-246 -416 -348 -683 -289 l-77 17 137 56 c75 31 218 88 317 126 99 37 207 81
240 96 82 39 97 37 66 -6z m-946 -45 c110 -13 250 -30 310 -37 l110 -14 -112
-52 c-218 -101 -362 -87 -606 59 -152 91 -153 105 -7 84 58 -9 195 -27 305
-40z"/>
<path d="M2432 2121 c-104 -149 -112 -168 -112 -274 0 -144 10 -135 149 149
163 333 147 388 -37 125z"/>
<path d="M2615 2055 c-47 -114 -47 -115 45 -112 91 4 92 7 48 117 -41 100 -50
100 -93 -5z"/>
</g>
</svg>
