<?xml version="1.0" standalone="no"?>
<!DOCTYPE svg PUBLIC "-//W3C//DTD SVG 20010904//EN"
 "http://www.w3.org/TR/2001/REC-SVG-20010904/DTD/svg10.dtd">
<svg version="1.0" xmlns="http://www.w3.org/2000/svg"
 width="900.000000pt" height="900.000000pt" viewBox="0 0 900.000000 900.000000"
 preserveAspectRatio="xMidYMid meet">
<metadata>
Created by potrace 1.10, written by Peter Selinger 2001-2011
</metadata>
<g transform="translate(0.000000,900.000000) scale(0.100000,-0.100000)"
fill="#000000" stroke="none">
<path d="M732 8262 c-9 -6 6 -20 50 -47 125 -76 272 -206 385 -340 96 -114
200 -262 454 -645 141 -212 533 -801 871 -1310 621 -934 657 -989 765 -1160
160 -252 297 -541 361 -755 80 -272 82 -297 82 -1045 0 -925 -19 -1295 -80
-1520 -11 -41 -24 -89 -29 -106 -16 -61 -93 -205 -150 -282 -86 -115 -181
-204 -303 -281 -37 -24 -65 -47 -62 -52 7 -12 2211 -12 2219 0 3 6 -33 35 -80
66 -216 142 -407 401 -454 615 -5 19 -13 53 -19 75 -49 181 -54 331 -61 1620
l-6 1200 -47 70 c-25 39 -66 102 -91 140 -75 118 -135 212 -180 283 -42 64
-87 134 -193 302 -108 170 -177 277 -195 302 -10 15 -19 29 -19 32 0 3 -19 33
-43 68 -24 35 -61 92 -82 127 -22 35 -47 74 -55 86 -8 13 -34 54 -58 92 -24
37 -65 102 -92 143 -27 41 -67 104 -90 140 -23 36 -46 73 -53 84 -7 10 -43 67
-82 127 -38 60 -88 137 -109 171 -22 35 -69 108 -104 163 -70 108 -107 166
-192 301 -143 224 -238 420 -279 568 -27 97 -29 300 -5 385 38 135 116 255
216 334 27 21 46 42 43 47 -8 12 -2214 13 -2233 2z"/>
<path d="M4603 8262 c-11 -7 -53 -107 -160 -382 -24 -63 -57 -146 -73 -185
-16 -38 -49 -124 -75 -190 -25 -66 -59 -151 -75 -190 -16 -38 -49 -124 -75
-190 -25 -66 -60 -154 -77 -195 -16 -41 -36 -91 -43 -110 -7 -19 -27 -69 -43
-110 -17 -41 -52 -129 -77 -195 -26 -66 -60 -154 -77 -195 -16 -41 -36 -91
-43 -110 -7 -19 -27 -69 -44 -110 -46 -114 -47 -124 -17 -170 14 -22 28 -40
31 -40 5 0 32 59 58 125 15 41 49 125 107 270 18 44 38 96 45 115 7 19 27 71
45 115 18 44 38 96 45 115 7 19 27 69 43 110 37 91 118 298 126 323 8 26 35
20 48 -10 6 -16 16 -41 23 -58 8 -16 27 -64 43 -105 17 -41 51 -127 77 -190
72 -179 100 -249 133 -330 16 -41 50 -124 75 -185 25 -60 66 -162 92 -225 25
-63 60 -148 76 -187 16 -40 42 -106 58 -145 81 -200 125 -309 151 -373 15 -38
49 -122 75 -185 26 -63 60 -149 77 -190 16 -41 36 -88 43 -105 12 -29 38 -93
105 -260 17 -44 38 -93 45 -110 12 -28 24 -58 103 -255 16 -41 51 -124 76
-185 25 -60 46 -114 46 -119 0 -4 21 -58 46 -120 25 -61 58 -142 74 -181 15
-38 49 -121 74 -183 25 -61 67 -163 92 -225 25 -61 59 -143 74 -182 15 -38 49
-122 75 -185 26 -63 60 -146 75 -185 27 -68 93 -230 151 -370 79 -191 125
-334 160 -499 26 -123 26 -325 0 -428 -37 -143 -108 -273 -203 -369 -56 -57
-170 -149 -185 -149 -4 -1 -21 -12 -38 -25 -22 -18 -26 -25 -15 -30 26 -9
2290 -1 2291 9 0 5 -28 25 -63 44 -197 109 -394 323 -538 587 -18 33 -43 78
-55 100 -47 87 -177 372 -270 591 -53 126 -103 243 -110 259 -8 17 -35 82 -60
145 -26 63 -53 129 -60 145 -8 17 -41 98 -75 180 -34 83 -67 164 -75 180 -7
17 -33 80 -58 140 -42 104 -82 199 -228 553 -34 81 -67 161 -74 177 -8 17 -34
82 -60 145 -26 63 -52 129 -60 145 -7 17 -34 82 -60 145 -26 63 -53 129 -60
145 -13 30 -97 233 -180 435 -24 58 -78 188 -120 290 -42 102 -97 235 -122
295 -24 61 -50 124 -58 140 -14 32 -97 234 -196 473 -33 81 -66 161 -74 177
-7 17 -34 81 -59 143 -25 61 -67 163 -92 225 -25 61 -52 126 -59 142 -8 17
-35 82 -60 145 -26 63 -54 130 -61 147 -28 63 -43 99 -89 213 -26 63 -53 129
-60 145 -8 17 -35 82 -60 145 -26 63 -51 124 -55 135 -5 11 -32 76 -60 145
-60 145 -54 131 -119 284 -28 66 -51 125 -51 131 0 6 -9 21 -20 33 -16 17 -32
22 -73 22 -29 0 -57 -4 -64 -8z"/>
<path d="M6132 8262 c-9 -6 0 -17 30 -39 48 -35 149 -133 183 -178 30 -39 84
-139 102 -190 40 -109 53 -195 53 -351 0 -154 -9 -223 -46 -338 -21 -66 -5
-79 32 -24 125 186 360 495 472 623 194 221 316 336 458 431 46 31 81 60 78
65 -7 11 -1344 12 -1362 1z"/>
<path d="M3173 4663 c-8 -25 -88 -232 -125 -323 -16 -41 -36 -91 -43 -110 -13
-34 -39 -102 -105 -265 -18 -44 -38 -96 -45 -115 -7 -19 -27 -69 -43 -110 -17
-41 -51 -129 -77 -195 -25 -66 -60 -154 -77 -195 -16 -41 -36 -91 -43 -110 -7
-19 -26 -69 -43 -110 -16 -41 -40 -100 -52 -130 -11 -30 -25 -64 -29 -75 -5
-11 -15 -38 -24 -60 -15 -40 -45 -116 -107 -270 -18 -44 -38 -96 -45 -115 -7
-19 -27 -69 -43 -110 -17 -41 -51 -129 -77 -195 -25 -66 -60 -154 -77 -195
-16 -41 -37 -93 -45 -115 -25 -67 -103 -224 -166 -335 -187 -330 -418 -601
-632 -745 -47 -32 -82 -61 -79 -66 3 -5 307 -9 700 -9 549 0 694 3 694 13 -1
6 -26 28 -56 47 -67 42 -204 183 -257 262 -67 102 -100 177 -138 318 -28 101
-31 287 -5 380 15 57 90 256 155 415 5 11 15 38 24 60 8 22 29 76 47 120 18
44 38 96 45 115 7 19 27 69 43 110 17 41 65 163 107 270 42 107 90 229 107
270 16 41 36 91 43 110 7 19 27 71 45 115 18 44 38 96 45 115 7 19 27 69 43
110 17 41 52 129 77 195 26 66 60 154 77 195 16 41 36 91 43 110 7 19 27 69
43 110 89 217 172 436 172 449 0 25 -38 81 -55 81 -9 0 -18 -8 -22 -17z"/>
</g>
</svg>
